HIERARCHY
ROOT Hips
{
 OFFSET 0.000000 0.000000 0.000000
 CHANNELS 6 Xposition Yposition Zposition Yrotation Xrotation Zrotation
 JOINT Chest
 {
  OFFSET 0.000000 9.588913 -0.003946
  CHANNELS 3 Yrotation Xrotation Zrotation
  JOINT Chest2
  {
   OFFSET 0.000000 9.541882 0.008053
   CHANNELS 3 Yrotation Xrotation Zrotation
   JOINT Chest3
   {
    OFFSET 0.000000 9.501360 0.000000
    CHANNELS 3 Yrotation Xrotation Zrotation
    JOINT Chest4
    {
     OFFSET 0.000000 9.491660 0.000000
     CHANNELS 3 Yrotation Xrotation Zrotation
     JOINT Neck
     {
      OFFSET 0.000000 14.331917 0.000000
      CHANNELS 3 Yrotation Xrotation Zrotation
      JOINT Head
      {
       OFFSET 0.000000 8.884799 0.017034
       CHANNELS 3 Yrotation Xrotation Zrotation
       End Site
       {
        OFFSET 0.000000 16.896195 0.008993
       }
      }
     }
     JOINT RightCollar
     {
      OFFSET -2.923010 9.499495 0.000000
      CHANNELS 3 Yrotation Xrotation Zrotation
      JOINT RightShoulder
      {
       OFFSET -13.795216 0.000000 0.000000
       CHANNELS 3 Yrotation Xrotation Zrotation
       JOINT RightElbow
       {
        OFFSET -30.272209 0.000000 0.000000
        CHANNELS 3 Yrotation Xrotation Zrotation
        JOINT RightWrist
        {
         OFFSET -24.478199 0.000000 0.000000
         CHANNELS 3 Yrotation Xrotation Zrotation
         End Site
         {
          OFFSET -18.090752 0.000000 0.000000
         }
        }
       }
      }
     }
     JOINT LeftCollar
     {
      OFFSET 2.923010 9.499495 0.000000
      CHANNELS 3 Yrotation Xrotation Zrotation
      JOINT LeftShoulder
      {
       OFFSET 13.795216 0.000000 0.000000
       CHANNELS 3 Yrotation Xrotation Zrotation
       JOINT LeftElbow
       {
        OFFSET 30.272209 0.000000 0.000000
        CHANNELS 3 Yrotation Xrotation Zrotation
        JOINT LeftWrist
        {
         OFFSET 24.478199 0.000000 0.000000
         CHANNELS 3 Yrotation Xrotation Zrotation
         End Site
         {
          OFFSET 18.090752 0.000000 0.000000
         }
        }
       }
      }
     }
    }
   }
  }
 }
 JOINT RightHip
 {
  OFFSET -7.826875 0.019532 0.001973
  CHANNELS 3 Yrotation Xrotation Zrotation
  JOINT RightKnee
  {
   OFFSET 0.000000 -40.546152 -0.001885
   CHANNELS 3 Yrotation Xrotation Zrotation
   JOINT RightAnkle
   {
    OFFSET 0.000000 -39.417092 -0.003189
    CHANNELS 3 Yrotation Xrotation Zrotation
    JOINT RightToe
    {
     OFFSET 0.000000 -7.579396 17.243563
     CHANNELS 3 Yrotation Xrotation Zrotation
     End Site
     {
      OFFSET 0.000000 -1.500329 6.694466
     }
    }
   }
  }
 }
 JOINT LeftHip
 {
  OFFSET 7.826875 0.019532 0.001973
  CHANNELS 3 Yrotation Xrotation Zrotation
  JOINT LeftKnee
  {
   OFFSET 0.000000 -40.546152 -0.001885
   CHANNELS 3 Yrotation Xrotation Zrotation
   JOINT LeftAnkle
   {
    OFFSET 0.000000 -39.417092 -0.003189
    CHANNELS 3 Yrotation Xrotation Zrotation
    JOINT LeftToe
    {
     OFFSET 0.000000 -7.579396 17.243563
     CHANNELS 3 Yrotation Xrotation Zrotation
     End Site
     {
      OFFSET 0.000000 -1.500329 6.694466
     }
    }
   }
  }
 }
}
MOTION
Frames: 10
Frame Time: 0.008333
-253.416383 87.929606 231.442753 -50.672712 -9.915242 -1.079257 1.512545 1.048474 3.687796 0.518625 0.247587 2.024295 0.649626 0.306609 2.530725 0.518628 0.247589 2.024310 -0.518022 25.083266 -6.135365 0.834687 1.716211 -6.614905 -12.642122 6.429241 -4.235034 -4.037983 6.519535 85.465410 2.487401 7.598724 1.419687 -2.533309 -2.435733 0.423479 -5.988916 0.779217 -1.894133 0.009100 -0.867929 -78.765201 -13.279381 18.017300 -9.371341 9.140115 15.524089 -7.651900 -6.059032 -0.941046 1.748298 -0.895646 13.642194 -0.940926 1.417071 -3.412208 -2.697402 -0.079285 -0.256185 -0.245272 9.292815 0.617890 7.191823 11.529649 63.177015 18.407114 2.942397 4.128202 -0.377066 -1.145898 -2.029573 -3.648326
-254.177866 88.126810 231.890710 -50.830658 -9.808902 -1.117105 1.705359 0.988354 3.668795 0.663040 0.267171 1.996349 0.830227 0.330340 2.495923 0.663043 0.267172 1.996365 -0.570570 25.034867 -6.060033 0.760124 1.649249 -6.517008 -12.572665 6.301094 -4.206903 -3.812501 6.171704 85.507666 2.567337 7.539038 1.409730 -2.517044 -2.479655 0.345641 -5.766242 0.906326 -1.685542 0.255507 -0.513017 -78.990143 -13.182862 17.792329 -9.235625 8.988487 15.435763 -7.617832 -5.826165 -0.133161 1.816871 -1.104860 12.978317 -0.931081 1.503839 -3.264187 -2.590360 -0.084097 -0.457372 -0.309303 9.697155 -0.798428 7.152801 13.298989 63.892652 20.409215 3.156689 3.061059 -0.735707 -0.987571 0.308347 -2.610950
-254.931463 88.317400 232.360711 -51.046773 -9.825697 -1.090697 1.939024 1.002474 3.596132 0.810844 0.304020 1.965232 1.015152 0.375664 2.457213 0.810847 0.304022 1.965249 -0.620859 24.987966 -5.986419 0.688472 1.584524 -6.421705 -12.519277 6.157637 -4.200710 -3.589200 5.808549 85.561838 2.648026 7.460339 1.411919 -2.452048 -2.548814 0.245240 -5.543017 1.034734 -1.464715 0.557765 -0.173237 -79.198148 -13.086538 17.578667 -9.109111 8.846053 15.352679 -7.589119 -5.598145 0.788302 1.817093 -1.312300 12.326416 -0.946378 1.629769 -3.169962 -2.464681 -0.080927 -0.622259 -0.359804 10.083549 -2.058521 7.051207 14.946467 64.420919 22.225896 3.315808 2.201952 -1.085798 -0.787278 1.608183 -1.827340
-255.679915 88.497013 232.845506 -51.315424 -9.956160 -1.027417 2.214944 1.092092 3.493155 0.961229 0.355730 1.932322 1.203375 0.439578 2.416333 0.961232 0.355731 1.932340 -0.670498 24.941085 -5.914088 0.617868 1.520125 -6.328092 -12.477188 5.974845 -4.184802 -3.357399 5.452403 85.601662 2.730072 7.361413 1.425115 -2.337762 -2.633757 0.126017 -5.325145 1.158943 -1.232269 0.912415 0.152624 -79.391246 -12.986423 17.384495 -8.986758 8.736698 15.278173 -7.558585 -5.406292 1.814396 1.784999 -1.492725 11.690919 -0.993081 1.786359 -3.124568 -2.330930 -0.074301 -0.755989 -0.392265 10.414845 -3.178817 6.924412 16.379241 64.798852 23.735145 3.404996 1.557092 -1.367352 -0.574004 2.306409 -1.239347
-256.421285 88.661187 233.336445 -51.606292 -10.163478 -0.949830 2.507200 1.225423 3.376969 1.111631 0.419162 1.897965 1.391671 0.518176 2.373723 1.111635 0.419164 1.897984 -0.718092 24.896411 -5.844245 0.550093 1.458856 -6.237883 -12.434363 5.742257 -4.136753 -3.111548 5.124110 85.606858 2.822335 7.249863 1.443843 -2.192589 -2.728126 0.003109 -5.110561 1.283180 -0.990908 1.319516 0.464475 -79.564755 -12.880174 17.211401 -8.870649 8.668027 15.218046 -7.515779 -5.282736 2.909767 1.733883 -1.623592 11.067375 -1.052437 1.963919 -3.106834 -2.205144 -0.066743 -0.872336 -0.404691 10.642794 -4.205006 6.791591 17.539429 65.066311 24.863670 3.443301 1.144254 -1.540552 -0.377452 2.650095 -0.801546
-257.153588 88.806494 233.827530 -51.908073 -10.420197 -0.867173 2.805372 1.381937 3.256103 1.261133 0.490904 1.862706 1.578874 0.607196 2.330064 1.261137 0.490907 1.862725 -0.763837 24.856696 -5.778982 0.485395 1.404237 -6.153418 -12.380045 5.472795 -4.058384 -2.851638 4.829386 85.579971 2.932943 7.126620 1.468181 -2.039637 -2.817853 -0.108135 -4.898973 1.408057 -0.745080 1.777536 0.765755 -79.714336 -12.764283 17.063835 -8.763474 8.641270 15.173801 -7.453159 -5.204748 4.042730 1.662509 -1.700770 10.461318 -1.098276 2.140779 -3.121407 -2.099553 -0.056564 -0.965855 -0.399208 10.748381 -5.171016 6.653450 18.399781 65.255827 25.583565 3.460974 0.925286 -1.604565 -0.211695 2.812891 -0.470438
-257.874119 88.930200 234.312561 -52.211519 -10.692006 -0.788699 3.100470 1.542632 3.135872 1.409613 0.566550 1.827543 1.764805 0.701128 2.286599 1.409616 0.566553 1.827562 -0.807536 24.823523 -5.718772 0.424078 1.358222 -6.075293 -12.308534 5.186373 -3.959473 -2.582907 4.565164 85.525538 3.079718 6.989156 1.504102 -1.896059 -2.884829 -0.203345 -4.691205 1.526711 -0.495736 2.279120 1.061077 -79.842056 -12.637519 16.946898 -8.662139 8.655894 15.144780 -7.372848 -5.125430 5.172652 1.580917 -1.738511 9.879449 -1.115935 2.283114 -3.171517 -2.015501 -0.043644 -1.032710 -0.382513 10.709523 -6.117361 6.509527 18.966547 65.388865 25.897246 3.488208 0.853098 -1.581495 -0.084077 2.897952 -0.211000
-258.579130 89.030366 234.786845 -52.491851 -10.940192 -0.717201 3.374596 1.686201 3.016772 1.554490 0.641200 1.791373 1.946217 0.793865 2.241925 1.554494 0.641203 1.791392 -0.847656 24.797805 -5.662835 0.367634 1.321871 -6.003000 -12.223207 4.891147 -3.851652 -2.316922 4.331074 85.441078 3.277362 6.853198 1.564851 -1.780571 -2.923132 -0.282625 -4.483721 1.634692 -0.242611 2.805588 1.353526 -79.949843 -12.500146 16.859683 -8.563555 8.711239 15.130922 -7.289407 -5.030668 6.256345 1.494939 -1.746103 9.327869 -1.100595 2.363646 -3.263699 -1.949882 -0.030583 -1.067738 -0.360671 10.494392 -7.083729 6.355965 19.280539 65.469081 25.836671 3.536459 0.863292 -1.514561 0.003139 2.966420 0.011459
-259.266856 89.106362 235.247886 -52.732360 -11.137423 -0.651656 3.618324 1.800759 2.901626 1.693916 0.710908 1.752513 2.120773 0.880491 2.193916 1.693921 0.710911 1.752532 -0.885483 24.778991 -5.612053 0.314852 1.294513 -5.937191 -12.137549 4.588612 -3.750357 -2.060768 4.121811 85.329957 3.530955 6.742349 1.656661 -1.706801 -2.936474 -0.343907 -4.274454 1.729237 0.010364 3.328221 1.642493 -80.039704 -12.351468 16.793618 -8.464726 8.806628 15.128417 -7.221498 -4.934747 7.265244 1.401024 -1.720124 8.809086 -1.053817 2.399147 -3.402449 -1.898767 -0.017460 -1.066704 -0.336175 10.092987 -8.090206 6.198307 19.393381 65.476494 25.447432 3.588117 0.893187 -1.445596 0.058532 3.051697 0.219582
-259.939437 89.159511 235.698598 -52.948230 -11.288799 -0.573296 3.849958 1.905014 2.781101 1.827354 0.772463 1.709962 2.287784 0.957002 2.141291 1.827359 0.772466 1.709981 -0.922385 24.765024 -5.566930 0.264356 1.273605 -5.878052 -12.061001 4.284861 -3.669684 -1.817134 3.918878 85.202502 3.819816 6.665174 1.783339 -1.671295 -2.935877 -0.388520 -4.068476 1.809439 0.253990 3.825282 1.929320 -80.109627 -12.195866 16.737983 -8.362592 8.938149 15.137433 -7.182938 -4.847749 8.205770 1.278784 -1.664580 8.318320 -0.975281 2.408675 -3.573754 -1.862228 -0.004917 -1.041137 -0.312293 9.542056 -9.123810 6.040516 19.344891 65.385761 24.776187 3.594390 0.881111 -1.402289 0.121505 3.195476 0.424136
